<?xml version="1.0" encoding="UTF-8"?>
<svg xmlns="http://www.w3.org/2000/svg" width="250" height="65" viewBox="0 0 250 65" fill="none">
  <path d="M27.8526 64.8047H0L29.1194 1.54338H56.972L27.8526 64.8047Z" fill="#00205C"></path>
  <path d="M124.414 10.9961L122.555 5.7757L120.697 10.9961H124.414ZM121.285 1.32432H123.802L131.119 18.5469H127.566L125.684 14.0955H119.52L117.591 18.5469H114.039L121.285 1.32432Z" fill="#373534"></path>
  <path d="M132.625 8.38589H131.519V5.63567H132.625C132.695 3.18866 134.248 0.998274 136.883 0.998274L137.73 1.04485V4.12112C136.436 4.12112 135.848 4.21428 135.753 5.63567H137.565V8.38589H135.753V18.5469H132.625V8.38589Z" fill="#373534"></path>
  <path d="M139.612 5.63567H142.459V6.80103C143.188 5.70569 144.012 5.21617 145.306 5.21617H145.541V8.22272C144.906 8.22272 144.153 8.43247 143.635 8.82854C142.741 9.55095 142.718 10.5066 142.741 11.5785V18.5469H139.612V5.63567Z" fill="#373534"></path>
  <path d="M147.611 5.63958H150.74V18.5508H147.611V5.63958ZM147.611 1.32824H150.74V4.14818H147.611V1.32824Z" fill="#373534"></path>
  <path d="M166.127 14.3464C165.28 17.0966 162.528 18.9609 159.658 18.9609C157.893 18.9609 156.082 18.2382 154.812 17.0263C153.4 15.6981 152.694 13.9037 152.694 11.9925C152.694 8.21728 155.847 5.21073 159.634 5.21073C162.504 5.21073 165.351 7.12164 166.127 9.91844H162.599C161.916 8.77652 160.929 8.24042 159.587 8.24042C157.352 8.24042 155.823 9.895 155.823 12.0394C155.823 14.3232 157.47 15.9312 159.752 15.9312C160.905 15.9312 162.011 15.302 162.599 14.3464H166.127Z" fill="#373534"></path>
  <path d="M174.783 8.24042C172.478 8.21728 170.878 9.94158 170.878 12.2023C170.878 14.3232 172.618 15.9544 174.736 15.9312C176.995 15.9544 178.547 14.2767 178.547 12.0625C178.547 9.895 176.995 8.21728 174.783 8.24042ZM181.512 18.5414H178.641V16.7934C177.653 18.1219 175.818 18.9609 174.171 18.9609C172.148 18.9609 170.501 18.1219 169.372 16.7934C168.337 15.5583 167.749 13.8803 167.749 12.086C167.749 10.2914 168.219 8.79995 169.419 7.44828C170.736 5.93343 172.36 5.21102 174.265 5.21102C176.053 5.21102 177.606 6.00315 178.641 7.44798V5.63023H181.512V18.5414Z" fill="#373534"></path>
  <path d="M114.535 22.3985H123.381V25.4983H117.758V29.4601H123.122V32.5595H117.758V39.6211H114.535V22.3985Z" fill="#373534"></path>
  <path d="M125.496 26.7021H128.625V39.6133H125.496V26.7021ZM125.496 22.3907H128.625V25.2107H125.496V22.3907Z" fill="#373534"></path>
  <path d="M131.145 26.7099H134.039V27.8987C134.862 26.8268 136.274 26.2907 137.638 26.2907C139.002 26.2907 140.414 26.8965 141.355 27.8987C141.473 28.015 141.59 28.1316 141.684 28.2716C142.696 29.6699 142.72 31.2776 142.72 32.9325V39.6211H139.591V33.5386C139.591 32.5364 139.591 31.2544 139.049 30.392C138.603 29.7164 137.779 29.3201 136.979 29.3201C136.132 29.3201 135.215 29.763 134.791 30.462C134.227 31.3476 134.274 32.7461 134.274 33.7715V39.6211H131.145V26.7099Z" fill="#373534"></path>
  <path d="M151.728 29.3185C149.422 29.2954 147.822 31.0197 147.822 33.2804C147.822 35.4014 149.563 37.0325 151.681 37.0094C153.939 37.0325 155.492 35.3548 155.492 33.1407C155.492 30.9731 153.939 29.2954 151.728 29.3185ZM158.456 39.6196H155.586V37.8715C154.598 39.2001 152.763 40.0391 151.116 40.0391C149.093 40.0391 147.446 39.2001 146.317 37.8715C145.282 36.6364 144.693 34.9584 144.693 33.1641C144.693 31.3695 145.164 29.8781 146.364 28.5264C147.681 27.0116 149.304 26.2891 151.21 26.2891C152.998 26.2891 154.551 27.0813 155.586 28.5261V26.7084H158.456V39.6196Z" fill="#373534"></path>
  <path d="M160.783 26.7099H163.677V27.8987C164.5 26.8268 165.912 26.2907 167.277 26.2907C168.641 26.2907 170.053 26.8965 170.994 27.8987C171.111 28.015 171.229 28.1316 171.323 28.2716C172.335 29.6699 172.358 31.2776 172.358 32.9325V39.6211H169.229V33.5386C169.229 32.5364 169.229 31.2544 168.688 30.392C168.241 29.7164 167.418 29.3201 166.618 29.3201C165.771 29.3201 164.854 29.763 164.43 30.462C163.865 31.3476 163.912 32.7461 163.912 33.7715V39.6211H160.783V26.7099Z" fill="#373534"></path>
  <path d="M187.772 35.4245C186.925 38.1747 184.172 40.0391 181.302 40.0391C179.538 40.0391 177.726 39.3164 176.456 38.1044C175.044 36.7762 174.338 34.9819 174.338 33.0707C174.338 29.2954 177.491 26.2889 181.278 26.2889C184.149 26.2889 186.995 28.1998 187.772 30.9966H184.243C183.561 29.8546 182.573 29.3185 181.232 29.3185C178.997 29.3185 177.468 30.9731 177.468 33.1175C177.468 35.4014 179.114 37.0094 181.396 37.0094C182.549 37.0094 183.655 36.3801 184.243 35.4245H187.772Z" fill="#373534"></path>
  <path d="M199.84 31.789C199.323 30.2507 197.888 29.3185 196.288 29.3185C194.735 29.3185 193.135 30.2976 192.665 31.789H199.84ZM192.712 34.5389C193.183 36.0303 194.57 37.0094 196.147 37.0094C197.323 37.0094 198.452 36.5664 199.064 35.8906H202.522C201.722 38.1979 199.017 40.0391 196.265 40.0391C192.477 40.0391 189.395 37.0094 189.395 33.257C189.395 29.4351 192.406 26.2889 196.312 26.2889C200.029 26.2889 202.993 29.4586 202.993 33.0707C202.993 33.5602 202.899 34.0494 202.828 34.5389H192.712Z" fill="#373534"></path>
  <path d="M131.658 55.9997C130.34 59.1226 126.952 61.1035 123.588 61.1035C118.6 61.1035 114.578 56.9788 114.578 52.0613C114.578 47.1907 118.648 43.1357 123.494 43.1357C126.976 43.1357 130.411 45.1398 131.752 48.3789H128.082C126.999 47.0741 125.259 46.2351 123.518 46.2351C120.341 46.2351 117.801 48.9616 117.801 52.1779C117.801 55.2307 120.435 58.0041 123.541 58.0041C125.259 58.0041 126.741 57.2348 127.917 55.9997H131.658Z" fill="#373534"></path>
  <path d="M137.139 51.5718C136.41 52.2945 136.057 53.2264 136.057 54.2517C136.057 56.3258 137.68 58.0738 139.821 58.0738C142.032 58.0738 143.656 56.4192 143.656 54.2517C143.656 52.1313 141.985 50.3833 139.821 50.3833C138.857 50.3833 137.798 50.8728 137.139 51.5718ZM146.785 54.2517C146.785 58.0738 143.656 61.1035 139.821 61.1035C136.057 61.1035 132.928 58.0041 132.928 54.2517C132.928 50.3833 136.057 47.3536 139.962 47.3536C143.797 47.3536 146.785 50.4999 146.785 54.2517Z" fill="#373534"></path>
  <path d="M148.553 47.7727H151.4V48.938C152.129 47.8424 152.952 47.3532 154.246 47.3532H154.482V50.3594C153.846 50.3594 153.093 50.5692 152.576 50.9656C151.682 51.6877 151.658 52.6433 151.682 53.7152V60.6836H148.553V47.7727Z" fill="#373534"></path>
  <path d="M159.492 54.2332C159.492 55.352 159.869 56.3539 160.716 57.0997C161.374 57.6824 162.339 58.0785 163.209 58.0785C165.421 58.0785 167.068 56.3773 167.068 54.2101C167.068 52.1591 165.444 50.3879 163.327 50.3879C161.139 50.3879 159.492 52.0891 159.492 54.2332ZM156.552 47.7777H159.422V49.4555C160.434 48.0341 161.892 47.3582 163.656 47.3582C165.562 47.3582 167.044 47.9641 168.385 49.4555C169.585 50.6911 170.197 52.4154 170.197 54.2332C170.197 57.8921 167.468 61.1082 163.656 61.1082C162.01 61.1082 160.739 60.5721 159.681 59.2904V65H156.552V47.7777Z" fill="#373534"></path>
  <path d="M175.729 51.5718C174.999 52.2945 174.647 53.2264 174.647 54.2517C174.647 56.3258 176.27 58.0738 178.411 58.0738C180.622 58.0738 182.246 56.4192 182.246 54.2517C182.246 52.1313 180.575 50.3833 178.411 50.3833C177.446 50.3833 176.387 50.8728 175.729 51.5718ZM185.374 54.2517C185.374 58.0738 182.246 61.1035 178.411 61.1035C174.647 61.1035 171.517 58.0041 171.517 54.2517C171.517 50.3833 174.647 47.3536 178.552 47.3536C182.387 47.3536 185.374 50.4999 185.374 54.2517Z" fill="#373534"></path>
  <path d="M187.136 47.7727H189.983V48.938C190.712 47.8424 191.536 47.3532 192.83 47.3532H193.065V50.3594C192.43 50.3594 191.677 50.5692 191.16 50.9656C190.266 51.6877 190.242 52.6433 190.266 53.7152V60.6836H187.136V47.7727Z" fill="#373534"></path>
  <path d="M201.136 50.3833C198.831 50.3599 197.231 52.0845 197.231 54.3452C197.231 56.4658 198.972 58.0973 201.089 58.0738C203.348 58.0973 204.9 56.4192 204.9 54.2054C204.9 52.0379 203.348 50.3599 201.136 50.3833ZM207.865 60.684H204.994V58.936C204.006 60.2645 202.171 61.1035 200.525 61.1035C198.501 61.1035 196.854 60.2645 195.725 58.936C194.69 57.7009 194.102 56.0232 194.102 54.2286C194.102 52.4339 194.572 50.9425 195.772 49.5909C197.09 48.0763 198.713 47.3536 200.619 47.3536C202.407 47.3536 203.959 48.146 204.994 49.5909V47.7731H207.865V60.684Z" fill="#373534"></path>
  <path d="M210.662 50.5226H209.133V47.7727H210.662V43.4613H213.791V47.7727H215.673V50.5226H213.791V60.6836H210.662V50.5226Z" fill="#373534"></path>
  <path d="M217.723 47.7746H220.853V60.6855H217.723V47.7746ZM217.723 43.4633H220.853V46.2832H217.723V43.4633Z" fill="#373534"></path>
  <path d="M227.016 51.5718C226.286 52.2945 225.934 53.2264 225.934 54.2517C225.934 56.3258 227.557 58.0738 229.698 58.0738C231.909 58.0738 233.532 56.4192 233.532 54.2517C233.532 52.1313 231.862 50.3833 229.698 50.3833C228.733 50.3833 227.674 50.8728 227.016 51.5718ZM236.662 54.2517C236.662 58.0738 233.532 61.1035 229.698 61.1035C225.934 61.1035 222.804 58.0041 222.804 54.2517C222.804 50.3833 225.934 47.3536 229.839 47.3536C233.673 47.3536 236.662 50.4999 236.662 54.2517Z" fill="#373534"></path>
  <path d="M238.425 47.7727H241.319V48.9612C242.142 47.8893 243.554 47.3532 244.919 47.3532C246.283 47.3532 247.694 47.959 248.636 48.9612C248.753 49.0775 248.871 49.1944 248.965 49.3341C249.977 50.7324 250 52.3404 250 53.9952V60.6836H246.871V54.6011C246.871 53.5989 246.871 52.3169 246.33 51.4548C245.883 50.7789 245.059 50.3829 244.259 50.3829C243.413 50.3829 242.495 50.8255 242.072 51.5245C241.507 52.4104 241.554 53.8086 241.554 54.834V60.6836H238.425V47.7727Z" fill="#373534"></path>
  <path d="M105.755 64.6445L73.2096 1.55354H71.0215L100.85 64.6445H105.755Z" fill="#00205C"></path>
  <path d="M112.777 64.6445L80.2313 1.55354H78.0432L107.872 64.6445H112.777Z" fill="#00205C"></path>
  <path d="M91.6229 64.6445L59.0775 1.55354H56.8894L86.7181 64.6445H91.6229Z" fill="#00205C"></path>
  <path d="M98.7257 64.6445L66.1803 1.55354H63.9922L93.8208 64.6445H98.7257Z" fill="#00205C"></path>
</svg>
